<?xml version="1.0" standalone="no"?>
<!DOCTYPE svg PUBLIC "-//W3C//DTD SVG 20010904//EN"
 "http://www.w3.org/TR/2001/REC-SVG-20010904/DTD/svg10.dtd">
<svg version="1.0" xmlns="http://www.w3.org/2000/svg"
 width="265.000000pt" height="265.000000pt" viewBox="0 0 265.000000 265.000000"
 preserveAspectRatio="xMidYMid meet">
<metadata>
Created by potrace 1.11, written by Peter Selinger 2001-2013
</metadata>
<g transform="translate(0.000000,265.000000) scale(0.100000,-0.100000)"
fill="#000000" stroke="none">
<path d="M1150 2474 c-98 -17 -230 -60 -307 -100 -34 -18 -64 -29 -67 -26 -3
3 -6 1 -6 -5 0 -9 -32 -28 -52 -32 -5 0 -16 -9 -26 -18 -10 -10 -29 -25 -42
-33 -13 -8 -36 -27 -51 -42 -16 -15 -29 -26 -29 -23 0 2 -20 -17 -45 -43 -25
-25 -45 -50 -45 -55 0 -4 -4 -5 -10 -2 -5 3 -10 1 -10 -5 0 -6 -5 -8 -12 -4
-6 4 -8 3 -5 -4 8 -12 -2 -44 -12 -38 -4 3 -15 -11 -26 -30 -10 -19 -21 -34
-25 -34 -4 0 -11 -8 -14 -17 -3 -10 -12 -27 -19 -38 -15 -24 -71 -128 -72
-135 0 -3 -11 -32 -24 -65 -29 -77 -50 -156 -59 -225 -13 -97 -6 -329 12 -405
20 -85 24 -100 26 -100 1 0 3 -7 5 -17 5 -28 78 -193 87 -196 4 -2 6 -8 2 -13
-3 -5 0 -9 6 -9 6 0 8 -5 5 -10 -3 -6 -1 -10 5 -10 6 0 9 -4 6 -8 -3 -5 4 -15
15 -22 10 -8 19 -19 19 -25 0 -9 14 -28 60 -82 5 -7 10 -17 10 -23 0 -6 4 -8
10 -5 6 3 10 3 10 -2 0 -13 81 -95 130 -133 25 -19 53 -43 62 -54 10 -10 18
-16 18 -13 0 4 15 -4 33 -16 18 -13 60 -36 93 -52 32 -17 61 -32 64 -35 13
-14 196 -69 280 -85 52 -10 268 -13 335 -4 103 14 237 54 334 101 47 23 89 40
94 40 4 -1 7 3 7 9 0 5 5 7 10 4 6 -3 10 -1 10 5 0 6 8 14 18 17 24 10 112 76
112 85 0 4 4 8 9 8 5 0 39 29 75 65 36 36 63 65 59 65 -3 0 6 11 21 25 14 13
26 28 26 34 0 5 4 11 8 13 11 4 92 135 92 148 0 5 5 10 12 10 6 0 9 3 6 6 -4
3 6 33 22 67 27 61 63 177 75 247 14 80 17 284 5 358 -17 105 -18 110 -32 151
-7 20 -13 38 -13 41 -3 15 -29 88 -38 105 -6 11 -11 23 -12 26 -1 14 -41 89
-47 89 -5 0 -8 6 -8 13 0 7 -10 24 -22 37 -13 14 -21 26 -19 28 1 2 -6 15 -18
28 -12 13 -21 27 -21 30 0 4 -13 20 -30 36 -16 15 -30 32 -30 36 -1 4 -26 30
-57 57 -31 28 -67 60 -80 73 -13 12 -27 22 -32 22 -4 0 -16 8 -27 18 -11 9
-29 23 -40 29 -23 15 -213 111 -219 112 -3 0 -34 9 -69 20 -35 11 -93 25 -128
32 -89 17 -299 18 -388 3z"/>
</g>
</svg>
